<?xml version="1.0" encoding="UTF-8"?>
<svg version="1.1" xmlns="http://www.w3.org/2000/svg" width="80" height="80">
<path d="M0 0 C2.72265625 1.1640625 2.72265625 1.1640625 5 3 C6.29105336 8.48497203 5.81342016 14.3290357 3 19.25 C2.34 20.1575 1.68 21.065 1 22 C2.5778125 22.061875 2.5778125 22.061875 4.1875 22.125 C8.03479762 23.00798634 9.58669757 23.83331111 11.9987793 26.91845703 C14.15806292 31.40761875 13.49870586 36.51073011 13.3125 41.375 C13.28994141 42.49261719 13.26738281 43.61023437 13.24414062 44.76171875 C13.18543378 47.5091989 13.10336846 50.25389761 13 53 C11.125 54.0625 11.125 54.0625 9 55 C8.34 54.67 7.68 54.34 7 54 C7.00785522 54.94637329 7.00785522 54.94637329 7.01586914 55.91186523 C7.03657826 58.75373347 7.04964066 61.59558588 7.0625 64.4375 C7.07087891 65.43072266 7.07925781 66.42394531 7.08789062 67.44726562 C7.09272461 68.86362305 7.09272461 68.86362305 7.09765625 70.30859375 C7.10551147 71.62041626 7.10551147 71.62041626 7.11352539 72.95874023 C7 75 7 75 6 76 C3 76.125 3 76.125 0 76 C-1 75 -1 75 -1.11352539 73.14233398 C-1.10828857 72.35157471 -1.10305176 71.56081543 -1.09765625 70.74609375 C-1.09443359 69.89208984 -1.09121094 69.03808594 -1.08789062 68.15820312 C-1.07951172 67.26037109 -1.07113281 66.36253906 -1.0625 65.4375 C-1.05798828 64.53580078 -1.05347656 63.63410156 -1.04882812 62.70507812 C-1.03700225 60.46998686 -1.0205222 58.23502563 -1 56 C-2.32 56 -3.64 56 -5 56 C-4.99476318 56.57032959 -4.98952637 57.14065918 -4.98413086 57.72827148 C-4.96341779 60.29800323 -4.9503581 62.86771747 -4.9375 65.4375 C-4.92912109 66.33533203 -4.92074219 67.23316406 -4.91210938 68.15820312 C-4.90888672 69.01220703 -4.90566406 69.86621094 -4.90234375 70.74609375 C-4.89710693 71.53685303 -4.89187012 72.3276123 -4.88647461 73.14233398 C-5 75 -5 75 -6 76 C-9 76.125 -9 76.125 -12 76 C-13 75 -13 75 -13.11352539 72.95874023 C-13.10828857 72.08419189 -13.10305176 71.20964355 -13.09765625 70.30859375 C-13.09443359 69.36435547 -13.09121094 68.42011719 -13.08789062 67.44726562 C-13.07951172 66.45404297 -13.07113281 65.46082031 -13.0625 64.4375 C-13.05798828 63.44041016 -13.05347656 62.44332031 -13.04882812 61.41601562 C-13.03700007 58.94395151 -13.02051849 56.47200482 -13 54 C-14.485 54.495 -14.485 54.495 -16 55 C-16.99 54.34 -17.98 53.68 -19 53 C-19.69667307 49.12617371 -19.50920148 45.17903404 -19.5 41.25 C-19.52835938 40.16460937 -19.55671875 39.07921875 -19.5859375 37.9609375 C-19.60783278 29.00576639 -19.60783278 29.00576639 -16.70703125 25.2890625 C-13.43725659 22.52414482 -11.22608234 22.16572872 -7 22 C-7.66 21.0925 -8.32 20.185 -9 19.25 C-11.87730933 14.25310693 -11.90905914 8.60176983 -11 3 C-8.28257266 -0.88203906 -4.38124626 -0.81847458 0 0 Z " fill="#6D5A5D" transform="translate(24,2)"/>
<path d="M0 0 C4.27974217 1.37274749 5.61513891 2.33290745 7.875 6.25 C9.01666322 10.05554406 9.24165825 13.05291526 9 17 C6.69 18.32 4.38 19.64 2 21 C2.928125 21.2475 3.85625 21.495 4.8125 21.75 C8.31408576 23.12317089 9.13798888 23.83253117 11 27 C11.41650391 29.57788086 11.41650391 29.57788086 11.4765625 32.46484375 C11.5075 33.51220703 11.5384375 34.55957031 11.5703125 35.63867188 C11.59738281 37.2715918 11.59738281 37.2715918 11.625 38.9375 C11.67621885 41.09253315 11.73078741 43.24748987 11.7890625 45.40234375 C11.80662598 46.35616943 11.82418945 47.30999512 11.84228516 48.29272461 C11.99700144 50.94852779 12.41326029 53.40851725 13 56 C10.03 56.66 7.06 57.32 4 58 C4.01160156 59.21558594 4.02320312 60.43117187 4.03515625 61.68359375 C4.04453278 63.26822764 4.05363313 64.85286318 4.0625 66.4375 C4.07087891 67.23994141 4.07925781 68.04238281 4.08789062 68.86914062 C4.0965143 70.91295221 4.0522815 72.95683902 4 75 C3 76 3 76 0.53125 76.1328125 C-0.96921875 76.12894531 -0.96921875 76.12894531 -2.5 76.125 C-3.5003125 76.12757812 -4.500625 76.13015625 -5.53125 76.1328125 C-8 76 -8 76 -9 75 C-9.07325168 72.13732433 -9.09238205 69.299281 -9.0625 66.4375 C-9.05573242 65.22803711 -9.05573242 65.22803711 -9.04882812 63.99414062 C-9.03700518 61.99606244 -9.01906914 59.99802217 -9 58 C-11.97 57.34 -14.94 56.68 -18 56 C-17.83862549 55.28972656 -17.67725098 54.57945313 -17.51098633 53.84765625 C-16.99771234 50.98725119 -16.85853523 48.34082216 -16.82421875 45.4375 C-16.80037109 44.39335938 -16.77652344 43.34921875 -16.75195312 42.2734375 C-16.7089883 40.09134504 -16.6777356 37.9089905 -16.65820312 35.7265625 C-16.44685203 27.76403302 -16.44685203 27.76403302 -14.12890625 23.80078125 C-11.71925851 21.76252875 -10.1190675 21.25992229 -7 21 C-10.465 19.02 -10.465 19.02 -14 17 C-14.38475006 10.71574899 -13.09088558 6.41144489 -9.8125 1.0625 C-6.69813951 -0.7631596 -3.45542768 -0.46465031 0 0 Z " fill="#AC7D53" transform="translate(58,2)"/>
<path d="M0 0 C4.95 0 9.9 0 15 0 C16.00399524 2.62353518 17.00334445 5.24867795 18 7.875 C18.42925781 8.99455078 18.42925781 8.99455078 18.8671875 10.13671875 C21 15.7734375 21 15.7734375 21 18 C11.4675408 20.77307904 3.62320703 20.25010269 -6 18 C-4.23536928 11.89262558 -2.30442525 5.92566493 0 0 Z " fill="#FCC199" transform="translate(48,39)"/>
<path d="M0 0 C4.27974217 1.37274749 5.61513891 2.33290745 7.875 6.25 C9.92542373 13.08474576 9.92542373 13.08474576 9 17 C5.96589764 19.66058597 2.79596879 21.62569305 -1 23 C-5.99814425 22.58856739 -10.35180495 20.41908135 -14 17 C-15.22406953 10.99093138 -12.93542812 6.15780377 -9.8125 1.0625 C-6.69813951 -0.7631596 -3.45542768 -0.46465031 0 0 Z " fill="#A46F4D" transform="translate(58,2)"/>
<path d="M0 0 C2.72265625 1.16796875 2.72265625 1.16796875 5 3 C6.35724723 8.69032222 5.60123847 14.53819962 3 19.75 C2.34 20.8225 1.68 21.895 1 23 C0.67 22.34 0.34 21.68 0 21 C-1.98 21 -3.96 21 -6 21 C-6.33 21.66 -6.66 22.32 -7 23 C-10.99108579 16.5144856 -12.25243947 10.61618598 -11 3 C-8.27853753 -0.8795316 -4.3826335 -0.81873373 0 0 Z " fill="#7E5235" transform="translate(24,2)"/>
<path d="M0 0 C2.5 1.5625 2.5 1.5625 3.5 2.5625 C3.54063832 4.22867115 3.542721 5.89638095 3.5 7.5625 C1.85 7.5625 0.2 7.5625 -1.5 7.5625 C-1.5 9.2125 -1.5 10.8625 -1.5 12.5625 C-5.79 12.5625 -10.08 12.5625 -14.5 12.5625 C-14.5 10.9125 -14.5 9.2625 -14.5 7.5625 C-16.15 7.5625 -17.8 7.5625 -19.5 7.5625 C-19.75 5.25 -19.75 5.25 -19.5 2.5625 C-14.13370868 -2.61874679 -6.59529345 -2.70878124 0 0 Z " fill="#FCCAA6" transform="translate(63.5,25.4375)"/>
<path d="M0 0 C2.25 -0.3125 2.25 -0.3125 5 0 C7.69296187 2.23837014 8.86256749 4.10651963 9.39697266 7.58081055 C9.58385853 10.72466336 9.65931468 13.85076027 9.6875 17 C9.72975223 19.14590129 9.77521071 21.29174237 9.82421875 23.4375 C9.83541748 24.38496094 9.84661621 25.33242188 9.8581543 26.30859375 C9.99806949 28.96337021 10.41176994 31.41096544 11 34 C8.03 34.66 5.06 35.32 2 36 C2.01160156 37.21558594 2.02320313 38.43117187 2.03515625 39.68359375 C2.04453278 41.26822764 2.05363313 42.85286318 2.0625 44.4375 C2.07087891 45.23994141 2.07925781 46.04238281 2.08789062 46.86914062 C2.0965143 48.91295221 2.0522815 50.95683902 2 53 C1 54 1 54 -1.46875 54.1328125 C-2.96921875 54.12894531 -2.96921875 54.12894531 -4.5 54.125 C-5.5003125 54.12757812 -6.500625 54.13015625 -7.53125 54.1328125 C-10 54 -10 54 -11 53 C-11.07325168 50.13732433 -11.09238205 47.299281 -11.0625 44.4375 C-11.05798828 43.63119141 -11.05347656 42.82488281 -11.04882812 41.99414062 C-11.03700518 39.99606244 -11.01906914 37.99802217 -11 36 C-10.67 36 -10.34 36 -10 36 C-9.67 41.28 -9.34 46.56 -9 52 C-8.01 52 -7.02 52 -6 52 C-6 46.39 -6 40.78 -6 35 C-1.05 34.34 3.9 33.68 9 33 C8.34 30.69 7.68 28.38 7 26 C6.86474609 23.73657227 6.86474609 23.73657227 7.0234375 21.81640625 C7.10078125 20.76743164 7.10078125 20.76743164 7.1796875 19.69726562 C7.24414062 18.99279297 7.30859375 18.28832031 7.375 17.5625 C7.43171875 16.83095703 7.4884375 16.09941406 7.546875 15.34570312 C7.6867037 13.56288714 7.84175938 11.78127618 8 10 C6.35 10 4.7 10 3 10 C4.32 9.67 5.64 9.34 7 9 C6.37189827 6.02982306 6.37189827 6.02982306 5 3 C2.49004504 1.56076801 2.49004504 1.56076801 0 1 C0 0.67 0 0.34 0 0 Z " fill="#9E7749" transform="translate(60,24)"/>
<path d="M0 0 C0 1.65 0 3.3 0 5 C4.29 5 8.58 5 13 5 C13 3.35 13 1.7 13 0 C15.97 0.495 15.97 0.495 19 1 C19 6.28 19 11.56 19 17 C18.34 17 17.68 17 17 17 C16.49384702 15.73160474 15.99530901 14.46016898 15.5 13.1875 C15.2215625 12.47980469 14.943125 11.77210937 14.65625 11.04296875 C14 9 14 9 14 6 C9.05 6 4.1 6 -1 6 C-1 6.66 -1 7.32 -1 8 C-1.66 8 -2.32 8 -3 8 C-3.33 9.65 -3.66 11.3 -4 13 C-4.33 13 -4.66 13 -5 13 C-5 9.04 -5 5.08 -5 1 C-1 0 -1 0 0 0 Z " fill="#BF8E62" transform="translate(49,33)"/>
<path d="M0 0 C0.36090226 7.33834586 0.36090226 7.33834586 -1.125 10.0625 C-3.990802 11.495401 -5.99548152 10.84910305 -9 10 C-10.60725635 6.78548731 -10.05748185 3.56387464 -10 0 C-5.91847062 -2.09907226 -4.08152938 -2.09907226 0 0 Z " fill="#F1CA82" transform="translate(26,11)"/>
<path d="M0 0 C4.27974217 1.37274749 5.61513891 2.33290745 7.875 6.25 C9.05312049 10.17706831 9.62460956 12.94003788 9 17 C6.60259082 18.95578117 5.12413392 20 2 20 C2 19.34 2 18.68 2 18 C3.32 17.34 4.64 16.68 6 16 C6.38810488 10.61701244 6.38810488 10.61701244 4.8125 5.625 C1.62302095 2.76546706 -0.84733853 1.97694677 -5.125 2.0625 C-8.10237847 2.76328624 -8.10237847 2.76328624 -9.8125 5.0625 C-11.3146299 8.77829501 -11.66179866 12.00922414 -12 16 C-9.525 16.99 -9.525 16.99 -7 18 C-7 18.66 -7 19.32 -7 20 C-11.75 18.125 -11.75 18.125 -14 17 C-14.38475006 10.71574899 -13.09088558 6.41144489 -9.8125 1.0625 C-6.69813951 -0.7631596 -3.45542768 -0.46465031 0 0 Z " fill="#7A5135" transform="translate(58,2)"/>
<path d="M0 0 C1.65 0 3.3 0 5 0 C5 5.28 5 10.56 5 16 C3.68 16.33 2.36 16.66 1 17 C0 16 0 16 -0.09765625 12.40234375 C-0.0909822 10.91403133 -0.07902183 9.42573568 -0.0625 7.9375 C-0.05798828 7.17888672 -0.05347656 6.42027344 -0.04882812 5.63867188 C-0.0370068 3.75908129 -0.01907078 1.87953101 0 0 Z " fill="#F3CC84" transform="translate(56,60)"/>
<path d="M0 0 C1.65 0 3.3 0 5 0 C5 5.28 5 10.56 5 16 C3.68 16.33 2.36 16.66 1 17 C0 16 0 16 -0.09765625 12.40234375 C-0.0909822 10.91403133 -0.07902183 9.42573568 -0.0625 7.9375 C-0.05798828 7.17888672 -0.05347656 6.42027344 -0.04882812 5.63867188 C-0.0370068 3.75908129 -0.01907078 1.87953101 0 0 Z " fill="#F3CC84" transform="translate(50,60)"/>
<path d="M0 0 C2.8125 1.6875 2.8125 1.6875 5 4 C5.3125 6.75 5.3125 6.75 5 9 C4.1028125 8.2884375 4.1028125 8.2884375 3.1875 7.5625 C0.99617076 5.83534256 0.99617076 5.83534256 -2 5 C-2 5.66 -2 6.32 -2 7 C-4.31 7.66 -6.62 8.32 -9 9 C-8.6875 5.625 -8.6875 5.625 -8 2 C-4.7243083 -0.18379446 -3.79929471 -0.54275639 0 0 Z " fill="#A16D4B" transform="translate(23,3)"/>
<path d="M0 0 C0 3.3 0 6.6 0 10 C-4.75 11.125 -4.75 11.125 -7 10 C-7.3125 6.6875 -7.3125 6.6875 -7 3 C-4.60259082 1.04421883 -3.12413392 0 0 0 Z " fill="#F2CB83" transform="translate(59,12)"/>
<path d="M0 0 C1.5318929 4.5956787 1.63993711 8.41699768 -0.1875 12.9375 C-2 15 -2 15 -4.5625 15.4375 C-7 15 -7 15 -9 13 C-9 12.01 -9 11.02 -9 10 C-9.66 9.67 -10.32 9.34 -11 9 C-11 6.75 -11 6.75 -10 4 C-7.00985547 1.94304343 -3.686098 0 0 0 Z M-8 5 C-8.41725678 8.62599422 -8.41725678 8.62599422 -8 12 C-4.41672247 13.00217064 -4.41672247 13.00217064 -1 12 C-1 8.7 -1 5.4 -1 2 C-4.12413392 2 -5.60259082 3.04421883 -8 5 Z " fill="#926743" transform="translate(60,10)"/>
<path d="M0 0 C1.98 0 3.96 0 6 0 C7.15957207 3.47871621 6.77456651 4.34219645 5.5625 7.6875 C5.27503906 8.49574219 4.98757812 9.30398437 4.69140625 10.13671875 C4.46324219 10.75160156 4.23507813 11.36648437 4 12 C3.34 12 2.68 12 2 12 C1.47026689 10.37787941 0.95146893 8.75218416 0.4375 7.125 C0.14746094 6.22007813 -0.14257812 5.31515625 -0.44140625 4.3828125 C-1 2 -1 2 0 0 Z " fill="#F9F0E0" transform="translate(18,23)"/>
<path d="M0 0 C1.20217503 2.40435006 1.03897118 3.68381369 0.87890625 6.3515625 C0.83056641 7.20234375 0.78222656 8.053125 0.73242188 8.9296875 C0.64831055 10.26386719 0.64831055 10.26386719 0.5625 11.625 C0.51029297 12.5221875 0.45808594 13.419375 0.40429688 14.34375 C0.2744565 16.56284012 0.13948661 18.78149871 0 21 C1.65 21.33 3.3 21.66 5 22 C5 23.32 5 24.64 5 26 C4.01 26.33 3.02 26.66 2 27 C1.01 26.34 0.02 25.68 -1 25 C-1.35644531 22.58569336 -1.35644531 22.58569336 -1.328125 19.58984375 C-1.32296875 18.51798828 -1.3178125 17.44613281 -1.3125 16.34179688 C-1.291875 15.21837891 -1.27125 14.09496094 -1.25 12.9375 C-1.24484375 11.81021484 -1.2396875 10.68292969 -1.234375 9.52148438 C-1.1537709 1.1537709 -1.1537709 1.1537709 0 0 Z " fill="#876F52" transform="translate(6,30)"/>
<path d="M0 0 C0.66 0 1.32 0 2 0 C2.66 2.31 3.32 4.62 4 7 C6.87364791 7.41746608 6.87364791 7.41746608 10 7 C11.89858275 4.69694835 11.89858275 4.69694835 13 2 C13.33 1.34 13.66 0.68 14 0 C14.66 0 15.32 0 16 0 C15.21681311 3.91593446 13.60820142 7.36406635 12 11 C11.67 10.34 11.34 9.68 11 9 C9.02 9 7.04 9 5 9 C4.67 9.66 4.34 10.32 4 11 C3.32591692 9.73308493 2.66099503 8.46129251 2 7.1875 C1.62875 6.47980469 1.2575 5.77210937 0.875 5.04296875 C0 3 0 3 0 0 Z " fill="#A1824B" transform="translate(13,14)"/>
<path d="M0 0 C0.33 0 0.66 0 1 0 C1 6.6 1 13.2 1 20 C-0.98 20.99 -0.98 20.99 -3 22 C-3.66 21.67 -4.32 21.34 -5 21 C-5 19.68 -5 18.36 -5 17 C-3.35 16.67 -1.7 16.34 0 16 C0 10.72 0 5.44 0 0 Z " fill="#917755" transform="translate(36,35)"/>
<path d="M0 0 C0.99 0 1.98 0 3 0 C3 3.96 3 7.92 3 12 C0.05413171 7.58119757 -0.0985616 5.32232661 0 0 Z " fill="#F3CB83" transform="translate(64,34)"/>
<path d="M0 0 C0.99 0 1.98 0 3 0 C3.17835515 4.54805635 2.99785435 7.8794254 1 12 C0.67 12 0.34 12 0 12 C0 8.04 0 4.08 0 0 Z " fill="#F3CB83" transform="translate(44,34)"/>
<path d="M0 0 C0.33 0 0.66 0 1 0 C1 2.31 1 4.62 1 7 C2.98 7 4.96 7 7 7 C6.67 7.99 6.34 8.98 6 10 C1.125 9.125 1.125 9.125 0 8 C-0.14115161 5.32941149 -0.04247107 2.67567762 0 0 Z " fill="#A3834D" transform="translate(51,15)"/>
<path d="M0 0 C0.66 0 1.32 0 2 0 C5.34821429 6.96428571 5.34821429 6.96428571 4 11 C3.32591692 9.73308493 2.66099503 8.46129251 2 7.1875 C1.62875 6.47980469 1.2575 5.77210937 0.875 5.04296875 C0 3 0 3 0 0 Z " fill="#987946" transform="translate(13,14)"/>
</svg>
