<?xml version="1.0" encoding="UTF-8"?>
<svg version="1.1" xmlns="http://www.w3.org/2000/svg" width="512" height="512">
<path d="M0 0 C1.65783968 -0.00417961 3.31567649 -0.00966055 4.97350806 -0.01631981 C9.50092703 -0.03071101 14.02816298 -0.02654958 18.5555917 -0.019153 C23.4493911 -0.01440787 28.34315167 -0.02694309 33.23693848 -0.03717041 C42.81359496 -0.05433777 52.39018578 -0.05520265 61.96685366 -0.04995751 C69.75391717 -0.04591052 77.54096132 -0.04736565 85.32802391 -0.05270576 C86.43776241 -0.05345419 87.5475009 -0.05420261 88.69086784 -0.05497371 C90.94555746 -0.05650524 93.20024709 -0.05804359 95.45493671 -0.05958868 C116.58372452 -0.0733064 137.71247528 -0.06788127 158.84126224 -0.05640347 C178.15238379 -0.04647316 197.4634095 -0.05940958 216.77451626 -0.08333766 C236.62364638 -0.10774627 256.47273189 -0.11733211 276.3218767 -0.11068493 C287.45743928 -0.10719647 298.59292818 -0.10940012 309.72847939 -0.12693596 C319.20846287 -0.14168001 328.68832078 -0.14226464 338.16830186 -0.12486505 C343.00058301 -0.11637061 347.83264007 -0.11416733 352.66490936 -0.1295166 C357.09712455 -0.14342028 361.52892486 -0.1385281 365.9611164 -0.11927737 C367.55589845 -0.11553437 369.1507142 -0.11838972 370.74546609 -0.12888902 C389.98279856 -0.24643428 406.97685765 4.60257693 421.28630066 18.1325531 C432.86426879 29.58997816 440.5062626 44.74919628 440.68968201 61.17454529 C440.68877563 61.97747009 440.68786926 62.7803949 440.68693542 63.60765076 C440.69701126 64.91671638 440.69701126 64.91671638 440.70729065 66.25222778 C440.72612495 69.10603177 440.73018598 71.95959924 440.73234558 74.8134613 C440.73877858 76.80883885 440.74550731 78.80421546 440.7525177 80.79959106 C440.76445021 84.966102 440.76820217 89.13253021 440.76701355 93.29905701 C440.76680942 98.6402004 440.79422617 103.98081733 440.82855797 109.32183552 C440.85076628 113.43532765 440.85485313 117.54869121 440.8537941 121.66223717 C440.8561548 123.63224812 440.86500463 125.60226237 440.88045883 127.57221413 C440.90001634 130.32008448 440.89432374 133.06679367 440.88224792 135.81468201 C440.89348694 136.62772797 440.90472595 137.44077393 440.91630554 138.27845764 C440.87611839 141.87019078 440.69358207 143.97876378 438.55354309 146.92349243 C436.39640808 148.38768005 436.39640808 148.38768005 433.39640808 148.38768005 C433.39640808 154.98768005 433.39640808 161.58768005 433.39640808 168.38768005 C435.04640808 168.71768005 436.69640808 169.04768005 438.39640808 169.38768005 C440.49162468 172.53050495 440.64695205 173.23995813 440.65088367 176.81784821 C440.65671587 177.7296873 440.66254806 178.6415264 440.66855699 179.58099699 C440.66477766 180.5841836 440.66099834 181.58737021 440.65710449 182.62095642 C440.66093004 183.68564919 440.66475559 184.75034196 440.66869706 185.84729815 C440.67905746 189.4330739 440.67502904 193.01869043 440.67106628 196.60447693 C440.67541125 199.16832122 440.68059367 201.73216421 440.68655396 204.29600525 C440.69858623 210.54978774 440.70109178 216.80351106 440.69875369 223.05730289 C440.69697161 228.1434314 440.69871783 233.22954688 440.70297813 238.31567383 C440.70357332 239.03923605 440.70416851 239.76279827 440.70478174 240.50828663 C440.7059935 241.97823298 440.70720763 243.44817934 440.70842411 244.91812569 C440.71930918 258.71499454 440.71713344 272.51183897 440.71103927 286.3087092 C440.70587738 298.91731129 440.71710455 311.52583595 440.73613749 324.13442272 C440.75553729 337.08565025 440.76376762 350.03684121 440.76001424 362.98808336 C440.75810439 370.25708594 440.76056791 377.52602273 440.77472878 384.79501343 C440.78792293 391.63712718 440.78535327 398.47908413 440.77231789 405.32119751 C440.76995423 407.82894442 440.77267919 410.33670223 440.78094101 412.84443665 C440.79142835 416.27598077 440.78329106 419.70700862 440.77062988 423.13853455 C440.77800417 424.12387538 440.78537845 425.10921622 440.7929762 426.12441587 C440.66271203 442.9837522 433.08233057 459.0506828 421.18547058 470.83299255 C405.96857763 484.771155 388.96757025 488.85870342 368.79281616 488.77536011 C367.13497649 488.77953972 365.47713967 488.78502066 363.8193081 488.79167992 C359.29188913 488.80607111 354.76465318 488.80190968 350.23722446 488.79451311 C345.34342506 488.78976798 340.44966449 488.80230319 335.55587769 488.81253052 C325.9792212 488.82969787 316.40263038 488.83056276 306.82596251 488.82531761 C299.038899 488.82127063 291.25185484 488.82272575 283.46479225 488.82806587 C282.35505376 488.82881429 281.24531526 488.82956272 280.10194832 488.83033382 C277.8472587 488.83186535 275.59256907 488.8334037 273.33787946 488.83494879 C252.20909164 488.84866651 231.08034088 488.84324138 209.95155392 488.83176357 C190.64043237 488.82183327 171.32940667 488.83476969 152.0182999 488.85869776 C132.16916978 488.88310637 112.32008428 488.89269222 92.47093946 488.88604504 C81.33537688 488.88255657 70.19988798 488.88476023 59.06433678 488.90229607 C49.5843533 488.91704011 40.10449538 488.91762474 30.6245143 488.90022516 C25.79223315 488.89173072 20.96017609 488.88952744 16.1279068 488.90487671 C11.69569161 488.91878039 7.2638913 488.91388821 2.83169977 488.89463747 C1.23691771 488.89089448 -0.35789804 488.89374983 -1.95264993 488.90424912 C-21.1899824 489.02179439 -38.18404149 484.17278317 -52.4934845 470.64280701 C-64.93392344 458.33189069 -71.74964605 442.85943546 -71.87193475 425.39607244 C-71.87589396 423.24837889 -71.87016864 421.10082777 -71.86428833 418.95314026 C-71.86731188 417.38578639 -71.87120238 415.81843401 -71.8758809 414.25108421 C-71.8861434 409.96003146 -71.88398354 405.66906244 -71.8797003 401.37800288 C-71.87722991 396.74395142 -71.88625112 392.10991996 -71.89373779 387.47587585 C-71.90647801 378.40348868 -71.90827933 369.33113112 -71.90593753 360.25873651 C-71.90415349 352.88346966 -71.90590586 345.50821179 -71.91016197 338.13294601 C-71.91075716 337.0827041 -71.91135235 336.03246219 -71.91196558 334.95039477 C-71.91317734 332.81673162 -71.91439148 330.68306847 -71.91560795 328.54940532 C-71.92648084 308.54622678 -71.92432216 288.54306511 -71.91822311 268.53988563 C-71.91305393 250.24759789 -71.92430987 231.9553634 -71.94332132 213.66308619 C-71.96270144 194.8717669 -71.97095543 176.0804728 -71.96719807 157.28914344 C-71.96528633 146.74276914 -71.96777106 136.19644015 -71.98191261 125.65007401 C-71.99382956 116.67204385 -71.99522774 107.69408693 -71.98312245 98.71605577 C-71.97723605 94.13748041 -71.97612775 89.55903898 -71.98812485 84.98047256 C-71.99899111 80.78464481 -71.99587149 76.5890627 -71.98186316 72.3932464 C-71.97921829 70.87987088 -71.98157616 69.36647607 -71.98959903 67.85311951 C-72.08025059 49.46943576 -66.70096541 32.78809641 -53.81257629 19.34861755 C-38.64398658 4.32608029 -20.77072209 -0.0858053 0 0 Z " fill="#000101" transform="translate(71.60359191894531,11.612319946289063)"/>
<path d="M0 0 C1.62153826 -0.00445688 3.24307435 -0.0097724 4.86460727 -0.01586872 C9.3056203 -0.03000532 13.74656319 -0.03171284 18.18759549 -0.03127182 C22.98330378 -0.03292387 27.77898351 -0.04599765 32.57467651 -0.0574646 C43.05422211 -0.08028393 53.53374741 -0.08823194 64.01331449 -0.09329104 C70.56161312 -0.0965517 77.1099059 -0.10307641 83.65820122 -0.11029243 C101.80261959 -0.12985453 119.94703254 -0.14626097 138.09146214 -0.14916897 C139.83205876 -0.14945032 139.83205876 -0.14945032 141.60781896 -0.14973736 C143.96004196 -0.1501036 146.31226496 -0.1504673 148.66448797 -0.15082847 C149.83207202 -0.15101128 150.99965607 -0.1511941 152.20262146 -0.15138245 C153.95614507 -0.15165327 153.95614507 -0.15165327 155.7450934 -0.15192956 C174.68068578 -0.15547004 193.61616436 -0.18248627 212.55171729 -0.21988034 C232.0108991 -0.2579997 251.47002449 -0.27732671 270.92924446 -0.27762848 C281.84749475 -0.27821224 292.76560928 -0.28665163 303.68382454 -0.31562614 C312.98197228 -0.34018859 322.27993473 -0.34739011 331.57810617 -0.33237862 C336.31738511 -0.32522959 341.05629852 -0.32598021 345.79553604 -0.34878922 C350.14410768 -0.36951648 354.49203596 -0.36665202 358.84060168 -0.34591437 C360.40386896 -0.34244557 361.96718399 -0.34721722 363.53038878 -0.36161881 C377.87761002 -0.48515395 391.61214553 2.00520901 403.06761169 11.27415466 C403.99960388 11.96638123 403.99960388 11.96638123 404.95042419 12.67259216 C414.1825902 19.90645384 420.25445967 31.77317806 422.06761169 43.27415466 C422.16846213 46.05642702 422.22157066 48.81467165 422.22532654 51.59690857 C422.23040726 52.42187332 422.23548798 53.24683807 422.24072266 54.09680176 C422.25139537 55.88211137 422.26002761 57.6674341 422.26684189 59.4527626 C422.27865864 62.27687265 422.29811557 65.1008317 422.31996155 67.92488098 C422.38150648 75.95206208 422.4357237 83.97922427 422.46897888 92.00657654 C422.48988339 96.92077988 422.52514344 101.83470197 422.56973648 106.74874496 C422.58392059 108.62184219 422.59262434 110.4949891 422.59579086 112.36813736 C422.60068104 114.98245636 422.62378624 117.59602289 422.65110779 120.21018982 C422.64810165 120.98636154 422.64509552 121.76253326 422.64199829 122.56222534 C422.67691762 126.58717603 422.67691762 126.58717603 424.34364319 130.15315247 C426.38593309 131.52719891 426.38593309 131.52719891 430.06761169 133.27415466 C430.06761169 139.87415466 430.06761169 146.47415466 430.06761169 153.27415466 C428.41761169 153.93415466 426.76761169 154.59415466 425.06761169 155.27415466 C421.99020191 158.35156444 422.75900257 161.99818483 422.74876404 166.13011169 C422.73871841 167.04723938 422.72867279 167.96436707 422.71832275 168.9092865 C422.68735484 171.95017349 422.67041792 174.99097192 422.65354919 178.03196716 C422.63484849 180.13661977 422.61527591 182.24126479 422.59486389 184.34590149 C422.54342077 189.89265991 422.50386036 195.43944268 422.46672058 200.98631287 C422.41973415 207.63768782 422.35808437 214.28894086 422.2988739 220.94021606 C422.2105133 231.05148005 422.14085503 241.16271892 422.06761169 251.27415466 C404.24761169 251.27415466 386.42761169 251.27415466 368.06761169 251.27415466 C366.19261169 235.39915466 366.19261169 235.39915466 365.61497498 230.45433044 C362.8068999 206.75658228 356.25573114 186.14968562 337.46995544 170.04759216 C321.94787447 158.12127383 305.09481314 155.86459881 286.06761169 157.27415466 C270.65378177 159.8534228 256.65144755 169.47556462 247.38011169 181.89915466 C232.88297802 203.93616873 232.9296422 224.55120909 232.06761169 251.27415466 C198.40761169 251.27415466 164.74761169 251.27415466 130.06761169 251.27415466 C129.73761169 241.04415466 129.40761169 230.81415466 129.06761169 220.27415466 C124.90462943 199.45924334 117.81801531 180.52124966 100.25511169 167.46165466 C84.73203284 157.24149095 66.26937897 154.79201858 48.13401794 157.96165466 C44.97989647 158.87040515 42.06582827 159.94207794 39.06761169 161.27415466 C38.14206482 161.6750531 37.21651794 162.07595154 36.26292419 162.48899841 C18.41368639 171.21135966 7.00403561 188.27403415 0.46214294 206.55540466 C-1.13966408 211.53933086 -1.86230398 216.52745767 -2.49488831 221.71165466 C-2.60768127 222.56952576 -2.72047424 223.42739685 -2.83668518 224.31126404 C-3.99473859 233.28456058 -4.93320089 242.28146796 -5.93238831 251.27415466 C-23.75238831 251.27415466 -41.57238831 251.27415466 -59.93238831 251.27415466 C-60.02277754 224.37883837 -60.09642216 197.48364558 -60.13963699 170.58821583 C-60.16023815 158.09944014 -60.18831202 145.61076573 -60.23414612 133.12205505 C-60.27408872 122.23342258 -60.29983889 111.34486347 -60.30874228 100.45615977 C-60.31394443 94.69381321 -60.32612047 88.93167648 -60.35530853 83.16939735 C-60.38259486 77.73820552 -60.39080664 72.30730863 -60.38481903 66.87605476 C-60.38591337 64.88999068 -60.39378798 62.90391604 -60.40921021 60.91791153 C-60.5373524 43.55476147 -58.15338371 28.48335139 -45.94410706 15.18821716 C-32.53431231 2.42938333 -17.83387585 -0.0309365 0 0 Z " fill="#75B6EA" transform="translate(74.93238830566406,26.725845336914063)"/>
<path d="M0 0 C18.15 0 36.3 0 55 0 C55.66 7.92 56.32 15.84 57 24 C61.49538801 64.45849206 79.19138192 103.55205947 105.58251953 134.34033203 C106.82295298 135.79270313 108.03684577 137.26765665 109.24609375 138.74609375 C117.00706307 148.00616378 126.63881111 154.20831667 138.5 156.75 C139.655 156.8325 140.81 156.915 142 157 C143.06927734 157.09474609 143.06927734 157.09474609 144.16015625 157.19140625 C155.46424578 157.76120588 167.0945578 153.95398878 176 147 C181.94135335 141.54066121 185.94640677 135.44461295 189 128 C189.54720703 126.71222656 189.54720703 126.71222656 190.10546875 125.3984375 C193.86553489 111.11347006 191.2094288 95.20219124 186.77050781 81.40332031 C185.64331548 77.88745172 184.60245932 74.34681152 183.55126953 70.80761719 C183.03047332 69.06401305 182.50315762 67.32233828 181.96826172 65.58300781 C175.33208395 43.9922498 179.60624478 22.16112075 186 1 C187 0 187 0 188.80972385 -0.12304783 C189.6052312 -0.12212604 190.40073854 -0.12120424 191.22035217 -0.12025452 C192.13045547 -0.12162918 193.04055878 -0.12300385 193.97824097 -0.12442017 C194.98452545 -0.12082489 195.99080994 -0.11722961 197.02758789 -0.11352539 C198.08111954 -0.11367142 199.13465118 -0.11381744 200.22010803 -0.1139679 C203.720978 -0.11326826 207.22179552 -0.10547348 210.72265625 -0.09765625 C213.14261343 -0.09579225 215.56257099 -0.09436826 217.98252869 -0.09336853 C224.36615024 -0.08954192 230.74974921 -0.07971041 237.13336182 -0.06866455 C243.64163914 -0.05845351 250.1499201 -0.05387157 256.65820312 -0.04882812 C269.43881175 -0.03808827 282.21940467 -0.02120112 295 0 C296.14127036 4.18192623 297.26598779 8.36788386 298.37677002 12.5579834 C298.7553463 13.97727361 299.13811286 15.39545402 299.52545166 16.81237793 C304.15043731 33.75616653 305.37198551 49.88369923 299.71972656 66.78369141 C298.47714923 70.61005403 297.38302139 74.48006573 296.26391602 78.34399414 C295.64026416 80.49468885 295.01074913 82.64369396 294.37475586 84.79077148 C293.93595093 86.27492554 293.93595093 86.27492554 293.48828125 87.7890625 C293.09443237 89.11478271 293.09443237 89.11478271 292.69262695 90.46728516 C290.93241224 96.90382639 290.74849677 102.98041858 290.6875 109.625 C290.64399414 111.16994141 290.64399414 111.16994141 290.59960938 112.74609375 C290.49796184 125.17836869 294.81880806 134.72414153 303 144 C305.84415351 146.59766021 308.78781374 148.87776563 312 151 C312.77730469 151.52207031 313.55460937 152.04414063 314.35546875 152.58203125 C324.60901172 158.07986891 337.63349492 158.41899735 348.625 155.375 C354.47135289 153.40774381 359.16308692 150.79496935 364 147 C364.88558594 146.34064453 364.88558594 146.34064453 365.7890625 145.66796875 C371.39228194 141.22888851 375.60790958 135.59124668 380 130 C380.78375 129.04351562 381.5675 128.08703125 382.375 127.1015625 C411.82515236 90.38326356 423.92389394 46.14159092 427 0 C445.15 0 463.3 0 482 0 C482 36.3 482 72.6 482 110 C479.44657981 111.27671009 477.2171664 111.35955772 474.375 111.6875 C457.18074828 114.27138755 441.99568629 122.63982525 429 134 C428.32453125 134.58007812 427.6490625 135.16015625 426.953125 135.7578125 C411.19047065 150.32250512 403.09261281 171.07387189 401 192 C295.4 192 189.8 192 81 192 C80.01 185.07 80.01 185.07 79 178 C78.38192034 175.32165479 77.74114178 172.64693491 77 170 C76.443125 170.02964844 75.88625 170.05929687 75.3125 170.08984375 C72.33755784 169.89385938 70.62421152 169.47814384 68 168 C63.87118716 162.81031163 60.15166636 155.51592238 59 149 C59.28875 147.9275 59.5775 146.855 59.875 145.75 C60.01306094 141.60817186 59.77968531 141.1342465 57.25 138.125 C55.86629793 136.71683168 54.44625527 135.34384342 53 134 C52.22269531 133.26523437 51.44539063 132.53046875 50.64453125 131.7734375 C37.92072265 120.57032615 21.37902993 113.52265898 4.65234375 111.39453125 C2 111 2 111 0 110 C0 73.7 0 37.4 0 0 Z " fill="#B2E6FE" transform="translate(15,293)"/>
<path d="M0 0 C1.63293952 -0.00087295 3.26587877 -0.00262557 4.89881653 -0.00517833 C9.37073861 -0.0096383 13.8425644 -0.00166678 18.31447423 0.00837779 C23.14258191 0.01702949 27.97068435 0.01409091 32.79879761 0.01257324 C41.15878138 0.01152548 49.51873389 0.01779074 57.87870979 0.02904892 C69.965769 0.04531567 82.05281312 0.05051313 94.13988208 0.0530249 C113.75121718 0.05740016 133.36253563 0.07070467 152.97386169 0.08963013 C172.02236345 0.1079933 191.07086068 0.12214767 210.11936951 0.13064575 C211.88113713 0.13143392 211.88113713 0.13143392 213.67849601 0.13223802 C219.57078435 0.13484813 225.46307271 0.13737553 231.3553611 0.13986182 C280.22356747 0.16058905 329.09175576 0.19580998 377.95994568 0.24050903 C377.95994568 0.57050903 377.95994568 0.90050903 377.95994568 1.24050903 C270.37994568 1.24050903 162.79994568 1.24050903 51.95994568 1.24050903 C51.62994568 2.89050903 51.29994568 4.54050903 50.95994568 6.24050903 C50.55183877 7.58357822 50.11715412 8.9188821 49.65525818 10.24441528 C49.40340759 10.97966431 49.15155701 11.71491333 48.89207458 12.47244263 C48.34495956 14.05222484 47.79775626 15.63197649 47.25047302 17.21170044 C45.68062932 21.82608949 44.48474385 26.31461221 43.58494568 31.11550903 C42.5074854 35.80600977 42.5074854 35.80600977 40.14353943 37.68191528 C38.02244568 38.67800903 38.02244568 38.67800903 35.90135193 39.48269653 C32.67418846 40.74239415 31.52461515 42.17636466 29.95994568 45.24050903 C29.17159983 50.61111513 29.26489866 54.850415 31.70994568 59.74050903 C33.76761523 62.25084967 33.76761523 62.25084967 36.08103943 63.59207153 C37.95994568 65.24050903 37.95994568 65.24050903 38.38572693 67.48269653 C38.34834412 68.35152466 38.3109613 69.22035278 38.27244568 70.11550903 C38.23119568 71.08359497 38.18994568 72.05168091 38.14744568 73.04910278 C38.05463318 74.62884888 38.05463318 74.62884888 37.95994568 76.24050903 C37.93932068 77.3864856 37.91869568 78.53246216 37.89744568 79.71316528 C37.85619568 80.85656372 37.81494568 81.99996216 37.77244568 83.17800903 C37.73764099 84.23890747 37.7028363 85.29980591 37.66697693 86.39285278 C36.73814524 90.13383789 35.05301279 91.06738298 31.95994568 93.24050903 C28.98333145 97.70543037 29.46790887 102.00492988 29.95994568 107.24050903 C31.35289127 110.68621656 32.23343317 111.84930999 35.49900818 113.60769653 C39.4854567 117.87256368 38.9214234 122.78384136 39.14744568 128.42800903 C39.28141117 130.77322001 39.41813735 133.1182749 39.55760193 135.46316528 C39.65258972 137.18817261 39.65258972 137.18817261 39.74949646 138.94802856 C40.03677072 143.4424377 40.52279752 147.89822005 41.08494568 152.36550903 C41.17284363 153.07473511 41.26074158 153.78396118 41.3513031 154.51467896 C41.54936575 156.0905687 41.75376773 157.66566048 41.95994568 159.24050903 C41.08853943 159.69039185 40.21713318 160.14027466 39.31932068 160.60379028 C19.50794207 171.16575425 6.52418185 187.32509334 -0.38819885 208.83255005 C-1.53257872 213.05989785 -2.07290191 217.33736652 -2.60255432 221.67800903 C-2.71534729 222.53588013 -2.82814026 223.39375122 -2.9443512 224.27761841 C-4.10240461 233.25091495 -5.04086691 242.24782233 -6.04005432 251.24050903 C-23.86005432 251.24050903 -41.68005432 251.24050903 -60.04005432 251.24050903 C-60.13044355 224.34519274 -60.20408818 197.44999995 -60.24730301 170.5545702 C-60.26790416 158.06579451 -60.29597803 145.5771201 -60.34181213 133.08840942 C-60.38175473 122.19977695 -60.40750491 111.31121784 -60.4164083 100.42251414 C-60.42161045 94.66016758 -60.43378649 88.89803086 -60.46297455 83.13575172 C-60.49026088 77.70455989 -60.49847266 72.273663 -60.49248505 66.84240913 C-60.49357939 64.85634505 -60.501454 62.87027041 -60.51687622 60.8842659 C-60.64501841 43.52111584 -58.26104972 28.44970576 -46.05177307 15.15457153 C-32.60232765 2.35801181 -17.88277978 -0.07117524 0 0 Z " fill="#69A3D2" transform="translate(75.04005432128906,26.759490966796875)"/>
<path d="M0 0 C1.2684375 0.99 1.2684375 0.99 2.5625 2 C3.5525 2.7425 4.5425 3.485 5.5625 4.25 C15.82114945 13.09274211 20.94665868 26.03370743 23.5625 39 C23.73233398 39.75466553 23.90216797 40.50933105 24.07714844 41.28686523 C27.84042622 62.32373949 23.78011633 85.06381701 17.2734375 105.06640625 C10.0869425 127.78917281 15.0646065 151.38514478 22.6484375 173.2734375 C26.90671367 185.97547495 30.0182625 202.34832596 23.8203125 214.9609375 C18.69430976 223.27079287 11.99702354 228.33958156 2.5625 231 C-8.78026715 232.22393723 -16.7043716 229.67144537 -25.5390625 222.6875 C-28.85554404 219.73951641 -31.64254402 216.43662358 -34.4375 213 C-35.05238281 212.27167969 -35.66726562 211.54335938 -36.30078125 210.79296875 C-72.61315814 166.91248124 -84.56998185 111.96873824 -80.625 56.1875 C-80.52010254 54.6240686 -80.52010254 54.6240686 -80.41308594 53.02905273 C-79.58411089 42.718882 -77.52031535 33.00914324 -72.6875 23.8125 C-72.15926636 22.79144165 -72.15926636 22.79144165 -71.62036133 21.74975586 C-65.11308626 9.47743034 -55.43639488 -1.19909226 -42.1328125 -6.18359375 C-27.14300675 -9.49529502 -13.20256565 -7.68149274 0 0 Z " fill="#2E5475" transform="translate(165.4375,205)"/>
<path d="M0 0 C0.84691406 -0.01611328 1.69382812 -0.03222656 2.56640625 -0.04882812 C15.22231209 -0.05851871 25.86159951 5.57881276 34.99609375 14.09375 C47.9641831 27.60911651 53.08642399 45.23033749 54.3125 63.5 C54.39145508 64.6142334 54.47041016 65.7284668 54.55175781 66.87646484 C55.67251497 84.12205495 55.93532001 101.22365966 53.125 118.3125 C52.90349046 119.80577411 52.683503 121.29927461 52.46484375 122.79296875 C51.04478263 132.20744804 49.07329496 141.24082319 46.125 150.3125 C45.88265625 151.06789063 45.6403125 151.82328125 45.390625 152.6015625 C41.57193934 164.39456232 37.03336084 175.42031401 31.125 186.3125 C30.51011719 187.48039063 29.89523437 188.64828125 29.26171875 189.8515625 C21.96204057 203.24186242 12.63057639 215.28382437 2.125 226.3125 C0.8565625 227.7046875 0.8565625 227.7046875 -0.4375 229.125 C-8.13179831 236.03013951 -16.04930718 238.87771606 -26.36328125 238.625 C-34.55018304 237.60641191 -42.52787454 232.43091959 -47.671875 226.1015625 C-54.19330025 216.7541863 -54.1741485 205.30514252 -52.57470703 194.23388672 C-51.64866286 189.50693261 -50.2822459 184.91279507 -48.875 180.3125 C-48.36431255 178.61466476 -47.85390961 176.91674392 -47.34375 175.21875 C-46.56827532 172.63810307 -45.78839558 170.05991184 -44.98193359 167.48876953 C-37.65832987 143.85504107 -40.39441555 121.69998065 -46.9296875 98.33984375 C-49.96383029 87.47150837 -51.2159288 77.88853398 -51.1875 66.5625 C-51.21166992 64.65984375 -51.21166992 64.65984375 -51.23632812 62.71875 C-51.24613241 43.5023539 -46.1122679 26.49528704 -32.875 12.3125 C-23.07290262 3.86533616 -12.94720046 -0.04882051 0 0 Z " fill="#325A7E" transform="translate(372.875,197.6875)"/>
<path d="M0 0 C18.15 0 36.3 0 55 0 C55.66 7.92 56.32 15.84 57 24 C61.49538801 64.45849206 79.19138192 103.55205947 105.58251953 134.34033203 C106.82295298 135.79270313 108.03684577 137.26765665 109.24609375 138.74609375 C117.00706307 148.00616378 126.63881111 154.20831667 138.5 156.75 C139.655 156.8325 140.81 156.915 142 157 C143.06927734 157.09474609 143.06927734 157.09474609 144.16015625 157.19140625 C155.46424578 157.76120588 167.0945578 153.95398878 176 147 C185.73050058 138.05892275 191.05509789 126.75649438 191.625 113.625 C191.68300781 112.52091797 191.68300781 112.52091797 191.7421875 111.39453125 C191.83557998 109.59672594 191.9188371 107.79839892 192 106 C192.33 106 192.66 106 193 106 C193.00620361 106.56122559 193.01240723 107.12245117 193.01879883 107.70068359 C193.37584336 114.29664804 195.37213431 117.75275258 199.6875 122.625 C200.55665039 123.64750854 200.55665039 123.64750854 201.44335938 124.69067383 C203.26987087 126.81808886 205.12708438 128.91337299 207 131 C207.58604004 131.65371582 208.17208008 132.30743164 208.77587891 132.98095703 C219.1975664 144.51164515 229.98242418 156.11053657 242 166 C242.49628906 166.41540039 242.99257813 166.83080078 243.50390625 167.25878906 C246.52194742 169.77790811 249.57151328 172.24122895 252.68740845 174.63848877 C255.43195857 176.75214472 258.08500712 178.93073773 260.70785522 181.19256592 C273.57907821 191.63639595 285.99430653 191.70041242 302.06622744 191.41865635 C305.52153191 191.37106868 308.97646912 191.39277301 312.43197632 191.40643311 C318.94514956 191.42200643 325.45638409 191.37725927 331.96916711 191.30961108 C339.39632461 191.23549396 346.82305849 191.23048557 354.25052762 191.23064089 C369.50113798 191.22944477 384.75002358 191.14354697 400 191 C400.33 190.34 400.66 189.68 401 189 C401 189.99 401 190.98 401 192 C295.4 192 189.8 192 81 192 C80.01 185.07 80.01 185.07 79 178 C78.38192034 175.32165479 77.74114178 172.64693491 77 170 C76.443125 170.02964844 75.88625 170.05929687 75.3125 170.08984375 C72.33755784 169.89385938 70.62421152 169.47814384 68 168 C63.87118716 162.81031163 60.15166636 155.51592238 59 149 C59.28875 147.9275 59.5775 146.855 59.875 145.75 C60.01306094 141.60817186 59.77968531 141.1342465 57.25 138.125 C55.86629793 136.71683168 54.44625527 135.34384342 53 134 C52.22269531 133.26523437 51.44539063 132.53046875 50.64453125 131.7734375 C37.92072265 120.57032615 21.37902993 113.52265898 4.65234375 111.39453125 C2 111 2 111 0 110 C0 73.7 0 37.4 0 0 Z " fill="#9FCDE3" transform="translate(15,293)"/>
<path d="M0 0 C1.22818451 -0.0112793 2.45636902 -0.02255859 3.72177124 -0.03417969 C5.07989738 -0.02640274 6.43802119 -0.01821008 7.79614258 -0.00964355 C9.22865511 -0.01506461 10.66116206 -0.02218719 12.09365845 -0.03088379 C15.98213489 -0.04912236 19.87018692 -0.04204767 23.75867081 -0.02936745 C27.82740678 -0.01924243 31.89610635 -0.02863173 35.96484375 -0.03491211 C42.79767381 -0.04218999 49.63033095 -0.0325972 56.46313477 -0.0135498 C64.36354143 0.00821932 72.26353519 0.00116804 80.16393185 -0.02085543 C86.94622044 -0.0390055 93.72838471 -0.04156971 100.51068974 -0.03110075 C104.56183198 -0.02486361 108.61278013 -0.0240361 112.66390991 -0.0372467 C116.47257191 -0.04879901 120.28070143 -0.04079149 124.08930588 -0.01766968 C125.48731985 -0.01237917 126.88537861 -0.0139023 128.28337479 -0.02272034 C130.19101617 -0.03364394 132.09875544 -0.01751878 134.00634766 0 C135.07411942 0.0015081 136.14189117 0.0030162 137.24201965 0.00457001 C140.69523567 0.63409899 141.87914555 1.76292003 144.00317383 4.50793457 C144.5111084 7.27783203 144.5111084 7.27783203 144.52075195 10.49816895 C144.5333606 11.70622192 144.54596924 12.9142749 144.55895996 14.15893555 C144.55086304 15.46004272 144.54276611 16.7611499 144.53442383 18.10168457 C144.53711967 19.45402302 144.54100286 20.80635958 144.54602051 22.15869141 C144.55191142 24.98997491 144.54336676 27.8207529 144.5246582 30.65197754 C144.50186765 34.2772012 144.5149931 37.90124037 144.53894806 41.52642059 C144.55341778 44.31806325 144.54879494 47.10942609 144.53843689 49.90107727 C144.53447927 51.88637055 144.54660549 53.87167481 144.55895996 55.85693359 C144.540047 57.66901306 144.540047 57.66901306 144.52075195 59.5177002 C144.51756958 60.58041138 144.51438721 61.64312256 144.5111084 62.73803711 C143.86236313 66.27581144 142.92802696 67.44078816 140.00317383 69.50793457 C137.24432373 69.98895264 137.24432373 69.98895264 134.04125977 69.96203613 C132.84031677 69.96173401 131.63937378 69.96143188 130.40203857 69.96112061 C129.11025696 69.94047546 127.81847534 69.91983032 126.48754883 69.89855957 C125.14805954 69.89109528 123.8085593 69.88540323 122.46905518 69.88140869 C118.95065946 69.8661667 115.43292868 69.82689875 111.91479492 69.78259277 C108.32195022 69.74160821 104.72899763 69.72339097 101.13598633 69.70324707 C94.09144417 69.66040202 87.0473525 69.59216903 80.00317383 69.50793457 C83.89687365 62.59362845 87.82607545 55.72028731 92.03051758 48.98840332 C92.67698242 47.94619629 93.32344727 46.90398926 93.98950195 45.8302002 C95.30669841 43.71398367 96.63512695 41.60472289 97.97387695 39.5020752 C101.75512099 33.35803155 104.06936631 28.79646225 104.00317383 21.50793457 C102.65777221 19.16549516 102.65777221 19.16549516 100.00317383 18.50793457 C96.52873974 18.49404853 96.52873974 18.49404853 93.00317383 19.50793457 C90.71266119 21.82544143 90.71266119 21.82544143 89.05786133 24.95715332 C88.72126495 25.52505081 88.38466858 26.0929483 88.03787231 26.67805481 C86.96191873 28.50498509 85.91981898 30.34877149 84.87817383 32.19543457 C84.20328293 33.35491661 83.52621143 34.51313225 82.84692383 35.67004395 C82.50623367 36.25684937 82.16554352 36.84365479 81.81452942 37.44824219 C81.0899315 38.6826512 80.35204722 39.9093394 79.6023407 41.12866211 C77.21383659 45.0905256 75.4053894 48.97908394 73.78369141 53.31652832 C71.1784889 59.63226996 68.56444047 65.30913076 63.00317383 69.50793457 C52.59223406 72.98828592 41.15677503 71.86084479 30.35791016 71.25170898 C27.12168463 71.09269235 23.88699819 71.03228816 20.64758968 70.9763279 C16.77418576 70.90756337 12.90249912 70.7962542 9.03051758 70.67199707 C8.29684401 70.64932392 7.56317043 70.62665077 6.80726433 70.60329056 C4.73133529 70.52859765 2.65905259 70.42530891 0.58496094 70.31115723 C-0.59272354 70.25368317 -1.77040802 70.19620911 -2.98377991 70.13699341 C-6.62617933 69.37653925 -7.87514991 68.55001646 -9.99682617 65.50793457 C-10.50476074 62.73803711 -10.50476074 62.73803711 -10.5144043 59.5177002 C-10.52701294 58.30964722 -10.53962158 57.10159424 -10.5526123 55.85693359 C-10.54451538 54.55582642 -10.53641846 53.25471924 -10.52807617 51.91418457 C-10.53077201 50.56184612 -10.5346552 49.20950956 -10.53967285 47.85717773 C-10.54556376 45.02589423 -10.5370191 42.19511624 -10.51831055 39.3638916 C-10.49552 35.73866794 -10.50864544 32.11462877 -10.5326004 28.48944855 C-10.54707013 25.69780589 -10.54244728 22.90644305 -10.53208923 20.11479187 C-10.52813162 18.12949859 -10.54025784 16.14419433 -10.5526123 14.15893555 C-10.54000366 12.95088257 -10.52739502 11.74282959 -10.5144043 10.49816895 C-10.51122192 9.43545776 -10.50803955 8.37274658 -10.50476074 7.27783203 C-9.40436318 1.27708195 -5.6257858 0.00794576 0 0 Z " fill="#FEFEFE" transform="translate(188.996826171875,68.4920654296875)"/>
<path d="M0 0 C1.26020966 -0.00860046 2.52041931 -0.01720093 3.81881714 -0.02606201 C5.21827656 -0.03049721 6.61773643 -0.03479557 8.01719666 -0.03897095 C9.48908176 -0.04687362 10.96096493 -0.05514267 12.43284607 -0.06375122 C17.27075859 -0.08996075 22.10867971 -0.10528165 26.94664001 -0.11953735 C28.61399783 -0.1248982 30.28135559 -0.13027572 31.9487133 -0.13566971 C38.88784187 -0.15730031 45.82696812 -0.1760344 52.76612186 -0.1872921 C62.69842927 -0.20351311 72.63034435 -0.23664361 82.56250387 -0.29369295 C89.55204709 -0.33246502 96.5414857 -0.35193359 103.53113359 -0.35721266 C107.70219907 -0.36085731 111.87284599 -0.37278276 116.04379463 -0.4053154 C119.97311194 -0.43552307 123.90176028 -0.44166324 127.83116913 -0.42993164 C129.26701039 -0.42971193 130.70288382 -0.43793129 132.13861656 -0.45558548 C140.75233798 -0.55566635 147.82347426 -0.02186932 154.97398376 5.15390015 C160.03157188 10.55287005 162.21404979 16.15139025 162.26451111 23.56137085 C162.27727081 24.83652054 162.29003052 26.11167023 162.30317688 27.42546082 C162.30623504 28.81019946 162.30846253 30.19494015 162.30992126 31.5796814 C162.31635468 33.01068757 162.32308344 34.44169245 162.33009338 35.87269592 C162.34204974 38.86937506 162.34577599 41.86593908 162.34458923 44.86264038 C162.34438631 48.6857566 162.37166741 52.50812726 162.40613365 56.33106709 C162.42847206 59.28666005 162.43242465 62.24207567 162.43136978 65.19774437 C162.43371612 66.60623934 162.44248475 68.01473993 162.45803452 69.42315102 C162.55027563 78.64191625 162.20323102 85.14856422 156.07945251 92.39608765 C155.44652283 92.93491577 154.81359314 93.4737439 154.16148376 94.02890015 C153.53628845 94.58319702 152.91109314 95.1374939 152.26695251 95.70858765 C145.09816497 100.22724419 136.89026238 99.45118528 128.72032166 99.44442749 C127.27415624 99.45041828 125.82799401 99.45722509 124.38183594 99.46478271 C120.46859772 99.4823909 116.55544706 99.48713581 112.64217305 99.48841429 C110.19424427 99.48983904 107.74633752 99.4941147 105.29841423 99.49940872 C96.74990813 99.51788972 88.20146426 99.52608149 79.65293884 99.52450562 C71.6974773 99.52330376 63.74228685 99.54441958 55.7868939 99.57599294 C48.9442086 99.60217789 42.10161174 99.61287203 35.25887674 99.6115948 C31.17744202 99.61108595 27.09624856 99.6167268 23.01486397 99.6379509 C19.17582651 99.65737168 15.33725962 99.65743194 11.49820518 99.64291763 C10.09379002 99.64083338 8.68934509 99.64550758 7.28498077 99.65763855 C-1.74770547 99.7305775 -8.24597861 99.34267877 -15.26820374 93.1890564 C-15.80703186 92.53807983 -16.34585999 91.88710327 -16.90101624 91.21640015 C-17.45531311 90.56800171 -18.00960999 89.91960327 -18.58070374 89.2515564 C-21.60186731 84.86678656 -22.2819945 81.05442415 -22.33241272 75.77816772 C-22.35639381 73.87512627 -22.35639381 73.87512627 -22.38085938 71.93363953 C-22.38723859 70.55524093 -22.39263054 69.17683747 -22.39710999 67.7984314 C-22.40608758 66.37221691 -22.41520962 64.94600333 -22.42446899 63.51979065 C-22.44093475 60.53151164 -22.44865412 57.5433443 -22.45155334 54.55502319 C-22.45692125 50.7498906 -22.49454357 46.94582765 -22.54029751 43.14099598 C-22.57024003 40.19389651 -22.57728066 37.24704867 -22.5782795 34.29981041 C-22.58245129 32.89852714 -22.5947617 31.49724097 -22.61579704 30.09610939 C-22.73487813 21.47512025 -22.27076731 14.28223822 -17.02601624 7.15390015 C-11.63480486 2.1320787 -7.43366247 0.03773332 0 0 Z M-7.02601624 19.15390015 C-7.62935396 21.98237476 -7.62935396 21.98237476 -7.54359436 25.14413452 C-7.556203 26.3521875 -7.56881165 27.56024048 -7.58180237 28.80490112 C-7.57370544 30.1060083 -7.56560852 31.40711548 -7.55726624 32.74765015 C-7.55996208 34.0999886 -7.56384527 35.45232515 -7.56886292 36.80465698 C-7.57475382 39.63594049 -7.56620917 42.46671848 -7.54750061 45.29794312 C-7.52471006 48.92316678 -7.5378355 52.54720595 -7.56179047 56.17238617 C-7.57626019 58.96402882 -7.57163735 61.75539166 -7.5612793 64.54704285 C-7.55732168 66.53233613 -7.5694479 68.51764038 -7.58180237 70.50289917 C-7.56919373 71.71095215 -7.55658508 72.91900513 -7.54359436 74.16366577 C-7.54041199 75.22637695 -7.53722961 76.28908813 -7.53395081 77.38400269 C-6.88191153 80.93974006 -5.96571421 82.07230895 -3.02601624 84.15390015 C0.02678587 84.91938389 0.02678587 84.91938389 3.49229431 85.05233765 C4.13856781 85.09789795 4.78484131 85.14345825 5.45069885 85.19039917 C12.23157526 85.63428619 19.02955142 85.82306478 25.82188416 85.9937439 C29.03387461 86.08247113 32.22690531 86.24832808 35.43125916 86.4859314 C52.21693685 88.2233315 52.21693685 88.2233315 67.57722473 82.94176865 C74.11048308 76.58521135 77.84127145 68.02906306 81.37278748 59.77259827 C83.88089451 54.10428498 86.99995101 48.83085997 90.09898376 43.46640015 C90.62432205 42.50467896 91.14966034 41.54295776 91.69091797 40.55209351 C95.0359529 34.44123381 95.0359529 34.44123381 99.68492126 33.0171814 C102.97398376 33.15390015 102.97398376 33.15390015 105.47398376 34.02890015 C107.4746685 36.86320352 107.20010721 39.00221893 106.75865173 42.35848999 C105.04320397 48.46983937 101.1870941 53.72685055 97.78648376 59.02890015 C96.63836328 60.85002321 95.49507189 62.67406536 94.35403442 64.49963379 C93.31063852 66.16401505 92.25561509 67.82109094 91.19981384 69.47763062 C88.23807958 74.24371795 85.6280136 79.21235084 82.97398376 84.15390015 C90.72783434 84.24662088 98.48155482 84.31767523 106.23582077 84.36114883 C109.83656662 84.38201527 113.43693292 84.41031435 117.03746033 84.45565796 C120.5128629 84.49915139 123.98790064 84.52304436 127.46355438 84.53340912 C129.4334416 84.5443863 131.40318224 84.57560715 133.37284851 84.60708618 C134.5737915 84.60738831 135.7747345 84.60769043 137.0120697 84.60800171 C138.06908081 84.61688416 139.12609192 84.6257666 140.21513367 84.63491821 C143.76020658 84.01681862 144.90526513 83.07801069 146.97398376 80.15390015 C147.57732149 77.32542553 147.57732149 77.32542553 147.49156189 74.16366577 C147.51047485 72.3515863 147.51047485 72.3515863 147.5297699 70.50289917 C147.52167297 69.20179199 147.51357605 67.90068481 147.50523376 66.56015015 C147.50792961 65.2078117 147.5118128 63.85547514 147.51683044 62.50314331 C147.52272135 59.67185981 147.51417669 56.84108182 147.49546814 54.00985718 C147.47267759 50.38463352 147.48580303 46.76059435 147.509758 43.13541412 C147.52422772 40.34377147 147.51960488 37.55240863 147.50924683 34.76075745 C147.50528921 32.77546416 147.51741543 30.79015991 147.5297699 28.80490112 C147.51716125 27.59684814 147.50455261 26.38879517 147.49156189 25.14413452 C147.48837952 24.08142334 147.48519714 23.01871216 147.48191833 21.92379761 C146.83168012 18.37788188 145.77780193 17.37802695 142.97398376 15.15390015 C140.1500707 14.55447849 140.1500707 14.55447849 136.97715759 14.64596558 C135.74897308 14.63468628 134.52078857 14.62340698 133.25538635 14.61178589 C131.89726021 14.61956284 130.5391364 14.6277555 129.18101501 14.63632202 C127.74850249 14.63090096 126.31599553 14.62377839 124.88349915 14.61508179 C120.9950227 14.59684322 117.10697067 14.60391791 113.21848679 14.61659813 C109.14975081 14.62672314 105.08105124 14.61733384 101.01231384 14.61105347 C94.17948378 14.60377559 87.34682664 14.61336837 80.51402283 14.63241577 C72.61361617 14.65418489 64.7136224 14.64713361 56.81322575 14.62511015 C50.03093716 14.60696008 43.24877289 14.60439587 36.46646786 14.61486483 C32.41532561 14.62110196 28.36437747 14.62192947 24.31324768 14.60871887 C20.50458568 14.59716657 16.69645617 14.60517409 12.88785172 14.6282959 C11.48983774 14.63358641 10.09177898 14.63206328 8.69378281 14.62324524 C6.78614143 14.61232164 4.87840215 14.62844679 2.97080994 14.64596558 C1.90303818 14.64747368 0.83526642 14.64898178 -0.26486206 14.65053558 C-3.71807807 15.28006456 -4.90198796 16.40888561 -7.02601624 19.15390015 Z " fill="#010202" transform="translate(186.02601623535156,53.846099853515625)"/>
<path d="M0 0 C0.84691406 -0.01611328 1.69382812 -0.03222656 2.56640625 -0.04882812 C15.22231209 -0.05851871 25.86159951 5.57881276 34.99609375 14.09375 C47.9641831 27.60911651 53.08642399 45.23033749 54.3125 63.5 C54.39145508 64.6142334 54.47041016 65.7284668 54.55175781 66.87646484 C55.67251497 84.12205495 55.93532001 101.22365966 53.125 118.3125 C52.90349046 119.80577411 52.683503 121.29927461 52.46484375 122.79296875 C51.04478263 132.20744804 49.07329496 141.24082319 46.125 150.3125 C45.88265625 151.06789063 45.6403125 151.82328125 45.390625 152.6015625 C41.57193934 164.39456232 37.03336084 175.42031401 31.125 186.3125 C30.51011719 187.48039063 29.89523437 188.64828125 29.26171875 189.8515625 C21.96204057 203.24186242 12.63057639 215.28382437 2.125 226.3125 C0.8565625 227.7046875 0.8565625 227.7046875 -0.4375 229.125 C-8.13179831 236.03013951 -16.04930718 238.87771606 -26.36328125 238.625 C-34.55018304 237.60641191 -42.52787454 232.43091959 -47.671875 226.1015625 C-54.19330025 216.7541863 -54.1741485 205.30514252 -52.57470703 194.23388672 C-51.64866286 189.50693261 -50.2822459 184.91279507 -48.875 180.3125 C-48.36431255 178.61466476 -47.85390961 176.91674392 -47.34375 175.21875 C-46.56827532 172.63810307 -45.78839558 170.05991184 -44.98193359 167.48876953 C-37.65832987 143.85504107 -40.39441555 121.69998065 -46.9296875 98.33984375 C-49.96383029 87.47150837 -51.2159288 77.88853398 -51.1875 66.5625 C-51.21166992 64.65984375 -51.21166992 64.65984375 -51.23632812 62.71875 C-51.24613241 43.5023539 -46.1122679 26.49528704 -32.875 12.3125 C-23.07290262 3.86533616 -12.94720046 -0.04882051 0 0 Z M-24.875 15.3125 C-25.844375 15.993125 -26.81375 16.67375 -27.8125 17.375 C-38.29751516 26.37395002 -42.95198664 41.71245998 -44.11401367 55.05737305 C-44.87913886 71.40220075 -42.68202534 86.46488944 -38.875 102.3125 C-38.52284424 103.80064209 -38.52284424 103.80064209 -38.16357422 105.31884766 C-36.8502671 110.87294423 -36.8502671 110.87294423 -35.48754883 116.41503906 C-29.16620885 141.84518222 -36.46819203 165.28220711 -44.09057617 189.59960938 C-46.72737285 198.71883899 -47.89652485 210.07125226 -43.875 218.9375 C-40.34275828 224.86448187 -35.67862361 228.23039966 -29.3125 230.6875 C-21.4986758 232.10819531 -15.86012735 230.96055452 -8.875 227.3125 C-6.16682272 225.10447732 -6.16682272 225.10447732 -3.875 222.3125 C-3.318125 221.79429687 -2.76125 221.27609375 -2.1875 220.7421875 C29.91059495 190.84436519 45.91785806 141.2894849 48.03515625 98.58203125 C48.07962891 96.96361328 48.07962891 96.96361328 48.125 95.3125 C48.16496094 94.07886719 48.20492187 92.84523438 48.24609375 91.57421875 C48.78653915 66.23813854 47.71386081 39.95880844 30.8125 19.75 C23.53507509 12.18298898 13.6843404 7.15426317 3.1105957 6.93261719 C2.39347412 6.93422852 1.67635254 6.93583984 0.9375 6.9375 C0.19008545 6.93911133 -0.5573291 6.94072266 -1.32739258 6.94238281 C-10.28120437 7.13914869 -17.73948196 9.83640476 -24.875 15.3125 Z " fill="#366188" transform="translate(372.875,197.6875)"/>
<path d="M0 0 C18.1679574 1.77501014 32.59011047 9.6841031 45.8359375 22.046875 C48.97583305 25.07183526 48.97583305 25.07183526 53.04296875 25.9765625 C54.10451172 25.80253906 54.10451172 25.80253906 55.1875 25.625 C56.445625 25.41875 57.70375 25.2125 59 25 C60.50787377 27.59988552 62.00645461 30.20440197 63.5 32.8125 C64.14388672 33.91948242 64.14388672 33.91948242 64.80078125 35.04882812 C65.40986328 36.11713867 65.40986328 36.11713867 66.03125 37.20703125 C66.40830078 37.8616333 66.78535156 38.51623535 67.17382812 39.19067383 C68 41 68 41 68 44 C67.51144531 44.47050781 67.02289063 44.94101562 66.51953125 45.42578125 C64.83272875 46.88277692 64.83272875 46.88277692 64.63671875 48.98046875 C64.7590198 54.29586067 65.58643977 58.87584416 67 64 C67 64.99 67 65.98 67 67 C46.25276639 67.65952815 29.76047024 66.68516517 13.8046875 51.8828125 C1.80296301 39.36153283 -0.64181807 24.76142593 -0.30615234 8.078125 C-0.22527687 5.38393469 -0.12560378 2.69242968 0 0 Z " fill="#31597C" transform="translate(15,418)"/>
<path d="M0 0 C0.94813251 20.32407134 -0.15852403 36.27959262 -14.1796875 52.203125 C-23.52967283 61.43272426 -36.45818275 67.02776134 -49.59375 67.1953125 C-51.56259575 67.18218686 -53.53139696 67.15858509 -55.5 67.125 C-56.51320313 67.11597656 -57.52640625 67.10695313 -58.5703125 67.09765625 C-61.04712801 67.07429007 -63.52343379 67.04153168 -66 67 C-66.33057092 50.30616879 -58.25078648 35.01287184 -47 23 C-34.64653077 10.5350709 -18.20883837 0 0 0 Z " fill="#37638A" transform="translate(497,418)"/>
<path d="M0 0 C-2.27264388 3.89314114 -4.54733047 7.78507991 -6.82373047 11.67602539 C-7.59411811 12.99342343 -8.36399436 14.31112067 -9.13330078 15.62915039 C-10.25410948 17.54917626 -11.37689979 19.46803257 -12.5 21.38671875 C-12.83056396 21.95396164 -13.16112793 22.52120453 -13.50170898 23.1056366 C-14.21325482 24.31955244 -14.94297437 25.52293186 -15.68701172 26.71720886 C-17.12238208 29.12741783 -17.12238208 29.12741783 -18.50439453 32.32539368 C-23.00491681 41.33086334 -23.00491681 41.33086334 -28.37597656 43.13227844 C-32.60436305 43.50801301 -36.6433845 43.46687424 -40.875 43.26953125 C-42.41048358 43.24524992 -43.94606867 43.22676121 -45.48168945 43.21379089 C-49.50237617 43.1644081 -53.51684719 43.03699477 -57.53509521 42.89263916 C-61.64363487 42.75906203 -65.75319102 42.70015772 -69.86328125 42.63476562 C-77.91169107 42.49580229 -85.95507025 42.27429812 -94 42 C-94 41.67 -94 41.34 -94 41 C-87.4 41 -80.8 41 -74 41 C-73.67 38.36 -73.34 35.72 -73 33 C-67.4095476 18.12540344 -56.90612622 6.08959947 -42.5 -0.8125 C-29.54977433 -6.2652266 -12.27788939 -8.18525959 0 0 Z " fill="#7FD9D3" transform="translate(277,96)"/>
<path d="M0 0 C2.99835819 1.63290868 5.80069862 3.25565197 8.49609375 5.359375 C9.48609375 6.101875 10.47609375 6.844375 11.49609375 7.609375 C21.7547432 16.45211711 26.88025243 29.39308243 29.49609375 42.359375 C29.66592773 43.11404053 29.83576172 43.86870605 30.01074219 44.64624023 C33.77401997 65.68311449 29.71371008 88.42319201 23.20703125 108.42578125 C17.3308158 127.00561355 19.59090225 146.91650526 24.94482422 165.33056641 C25.66456963 167.97940802 26.11553684 170.64298602 26.49609375 173.359375 C23.85724813 170.95826322 22.13195846 168.35382472 20.30859375 165.296875 C19.77878906 164.41902344 19.24898437 163.54117188 18.703125 162.63671875 C17.49609375 160.359375 17.49609375 160.359375 17.49609375 158.359375 C16.83609375 158.359375 16.17609375 158.359375 15.49609375 158.359375 C12.72242697 151.96788198 11.80472965 146.2990065 11.49609375 139.359375 C11.44324219 138.44414062 11.39039063 137.52890625 11.3359375 136.5859375 C10.84760887 121.08681152 15.47215974 105.73973744 19.07055664 90.77978516 C19.51709595 88.91265869 19.51709595 88.91265869 19.97265625 87.0078125 C20.24158691 85.89583496 20.51051758 84.78385742 20.78759766 83.63818359 C25.22973244 63.0806818 24.57108411 40.05714359 13.27734375 21.91015625 C6.87274522 12.73865879 -1.41206326 6.72277012 -12.50390625 4.359375 C-21.28265245 3.50416349 -30.01890453 3.89101086 -38.50390625 6.359375 C-38.83390625 4.379375 -39.16390625 2.399375 -39.50390625 0.359375 C-29.48406643 -7.58739451 -10.99815274 -5.09147253 0 0 Z " fill="#366188" transform="translate(159.50390625,201.640625)"/>
<path d="M0 0 C9.01112859 4.24850776 13.93327198 12.96393875 17.90625 21.7265625 C19 25 19 25 20 33 C26.6 33 33.2 33 40 33 C40 33.33 40 33.66 40 34 C20.2 34 0.4 34 -20 34 C-15.23236647 25.65664131 -10.4657645 17.3463805 -5.5 9.125 C-4.96375 8.23425781 -4.4275 7.34351562 -3.875 6.42578125 C-2.58472797 4.28300806 -1.29307226 2.14108408 0 0 Z " fill="#7FD7D1" transform="translate(289,104)"/>
<path d="M0 0 C4.1402585 1.46126771 7.36288255 3.5425664 10.08203125 7.0625 C12.03974886 11.19453376 11.70520387 15.57764673 11 20 C8.70321747 24.85857844 5.82159389 27.63468979 1 30 C-3.7162216 30.82978405 -7.03024677 30.49402523 -11.3125 28.3125 C-17.73195624 22.78878184 -17.73195624 22.78878184 -18.3828125 18.4453125 C-18.56838416 13.88024957 -18.34478428 10.72935137 -16.375 6.5625 C-11.39554374 1.18992877 -7.26023062 -1.17851439 0 0 Z " fill="#B1E6FE" transform="translate(397,63)"/>
<path d="M0 0 C3.5677811 2.35149209 5.84221079 4.99692157 7.75 8.8125 C8.3472791 13.37147843 8.79461115 17.88660452 6.55078125 22.0234375 C3.47931252 25.69063191 0.45863776 28.38896755 -4.3984375 29.1484375 C-9.86376895 29.24432051 -12.99988733 28.56841353 -17.25 24.8125 C-21.37452838 20.36235096 -21.98148092 16.3810384 -21.7734375 10.5078125 C-20.93155342 6.17273774 -18.67083864 3.50366435 -15.25 0.8125 C-10.23125667 -2.16675401 -5.33208078 -1.94826029 0 0 Z " fill="#B1E5FE" transform="translate(125.25,64.1875)"/>
<path d="M0 0 C4.32900774 2.23432658 6.95545792 4.83728955 9.06640625 9.3125 C9.95926447 14.96388668 9.31234693 19.49955347 6.06640625 24.3125 C1.64202569 28.40505202 -1.79646553 29.68297619 -7.875 29.59375 C-12.28433366 28.99133629 -15.0335392 26.07044068 -18.30859375 23.3125 C-20.93608561 18.4617458 -20.88646112 13.6883786 -19.93359375 8.3125 C-15.88612918 0.73982435 -8.36141474 -2.97294746 0 0 Z " fill="#B1E6FE" transform="translate(454.93359375,63.6875)"/>
<path d="M0 0 C3.4271775 2.23511576 6.14346983 4.13431035 7.875 7.875 C8.78831151 12.81924276 9.06907095 17.58570503 6.6953125 22.13671875 C3.95977254 25.5171658 1.20445549 27.94725954 -3.125 28.875 C-7.96775415 29.33621468 -10.11997747 29.4059553 -14.4375 27.125 C-18.36152863 23.83976673 -20.75569544 21.05344092 -21.36328125 15.82421875 C-21.54408644 10.31441848 -20.97743563 7.12255724 -17.125 2.875 C-11.69939856 -1.4359358 -6.66640446 -2.39990561 0 0 Z " fill="#9FCEE4" transform="translate(69.125,64.125)"/>
<path d="M0 0 C3.4271775 2.23511576 6.14346983 4.13431035 7.875 7.875 C8.78831151 12.81924276 9.06907095 17.58570503 6.6953125 22.13671875 C3.95977254 25.5171658 1.20445549 27.94725954 -3.125 28.875 C-7.96775415 29.33621468 -10.11997747 29.4059553 -14.4375 27.125 C-18.36152863 23.83976673 -20.75569544 21.05344092 -21.36328125 15.82421875 C-21.54408644 10.31441848 -20.97743563 7.12255724 -17.125 2.875 C-11.69939856 -1.4359358 -6.66640446 -2.39990561 0 0 Z " fill="#9FCEE4" transform="translate(69.125,115.125)"/>
<path d="M0 0 C3.94634795 2.06152505 7.02335837 4.28172624 9.14453125 8.26953125 C9.79425996 13.1646464 9.81940944 17.60009572 7.95703125 22.20703125 C3.86869701 26.85927366 0.56138898 29.07142816 -5.66796875 29.58203125 C-10.07144453 29.5093133 -12.48638448 28.17919494 -15.85546875 25.26953125 C-19.79063706 20.9201347 -20.49891485 17.3513087 -20.234375 11.66796875 C-19.55094798 7.3419462 -17.67624783 4.7117325 -14.27734375 2.01953125 C-9.71085356 -0.94251644 -5.28992249 -2.08255896 0 0 Z " fill="#B1E6FE" transform="translate(398.85546875,114.73046875)"/>
<path d="M0 0 C4.3746274 2.23405117 7.04138357 4.77423226 9.140625 9.30859375 C9.94332503 14.38960216 9.73853421 18.13412923 7.390625 22.74609375 C3.38890821 27.30360454 0.46902468 29.11774132 -5.671875 29.62109375 C-10.86430493 29.5638243 -13.83980861 27.04959926 -17.671875 23.74609375 C-20.64547627 20.14647116 -20.24989426 15.46460359 -20.203125 11.0390625 C-19.6502867 6.6477674 -18.18649361 5.20174037 -14.859375 2.30859375 C-10.0867206 -0.80400694 -5.526821 -2.05514142 0 0 Z " fill="#B1E6FE" transform="translate(123.859375,114.69140625)"/>
<path d="M0 0 C3.23296365 2.2492906 5.3707564 4.01958011 6.75 7.8125 C7.48917213 13.50412543 7.02771703 17.95243682 3.75 22.8125 C-0.67438056 26.90505202 -4.11287178 28.18297619 -10.19140625 28.09375 C-14.60073991 27.49133629 -17.34994545 24.57044068 -20.625 21.8125 C-23.25420686 16.95857964 -23.19636335 12.1918285 -22.25 6.8125 C-20.22113506 2.90305924 -17.5687056 0.59019817 -13.8125 -1.625 C-8.48094425 -2.79534151 -4.74606379 -2.76926291 0 0 Z " fill="#B1E6FE" transform="translate(457.25,116.1875)"/>
<path d="M0 0 C-1.32 9.24 -2.64 18.48 -4 28 C-8.93639267 25.0381644 -10.58130111 24.01656066 -13 19 C-13.81917893 14.35798609 -14.11760915 10.02611723 -11.7890625 5.8046875 C-8.51175722 1.82866739 -5.32327255 -1.77442418 0 0 Z " fill="#A0CEE5" transform="translate(117,64)"/>
<path d="M0 0 C0 8.58 0 17.16 0 26 C-4.48247668 23.75876166 -6.42301467 22.73095598 -8 18 C-8.99736112 8.9240138 -8.99736112 8.9240138 -6.953125 4.98046875 C-2.8330292 0 -2.8330292 0 0 0 Z " fill="#9FCEE4" transform="translate(112,116)"/>
</svg>
